#!OML:ASF F:\VICON\USERDATA\INSTALL\rory3\rory3.ASF
:FULLY-SPECIFIED
:DEGREES
286
root 1.50511 17.6918 23.1464 -3.21543 15.089 4.38757
lowerback 18.0137 -0.462842 -6.24351
upperback 0.700695 -1.73564 1.52686
thorax -9.1318 -0.520268 5.67128
lowerneck -8.12052 -1.33957 -1.7806
upperneck 31.346 -1.14762 -1.00948
head 11.5323 -0.795522 -0.190158
rclavicle -1.14301e-014 3.18055e-015
rhumerus -45.6391 -19.1598 -63.4235
rradius 32.867
rwrist -3.35781
rhand -11.2688 6.59891
rfingers 7.12502
rthumb 14.7615 -22.8554
lclavicle -1.14301e-014 3.18055e-015
lhumerus -44.7519 22.3723 63.0186
lradius 123.309
lwrist 21.3509
lhand -18.71 59.3073
lfingers 7.12502
lthumb 7.58509 -270.849
rfemur -29.1115 1.25464 18.0784
rtibia 30.0727
rfoot 0.834626 -15.1188
rtoes 20.968
lfemur 15.9501 -6.39139 -26.74
ltibia 30.8068
lfoot 3.39505 -11.4438
ltoes -19.4277
287
root 1.51427 17.6966 23.374 -3.32957 14.6645 3.77233
lowerback 18.2863 -0.526315 -5.6193
upperback 0.431797 -1.70127 1.65522
thorax -9.60059 -0.501931 5.46495
lowerneck -8.12284 -1.3065 -1.95872
upperneck 31.7522 -1.12257 -0.809886
head 11.6977 -0.783803 -0.0846992
rclavicle -2.29099e-014 -1.74931e-014
rhumerus -45.5706 -18.8211 -63.6698
rradius 33.0683
rwrist -3.70021
rhand -11.5997 6.82094
rfingers 7.12502
rthumb 14.4427 -22.6565
lclavicle -2.29099e-014 -1.74931e-014
lhumerus -45.8906 20.595 64.3473
lradius 124.506
lwrist 14.8673
lhand -20.1198 59.0141
lfingers 7.12502
lthumb 6.22419 -271.097
rfemur -29.2085 1.4058 19.131
rtibia 31.3315
rfoot 1.45903 -14.9886
rtoes 23.1641
lfemur 14.4608 -6.15435 -25.6584
ltibia 33.4572
lfoot 7.83573 -11.4869
ltoes -14.9222
288
root 1.53916 17.6777 23.6087 -3.38119 14.3126 3.43766
lowerback 18.1558 -0.62343 -5.18016
upperback 0.389403 -1.72262 1.74941
thorax -9.58053 -0.530276 5.31802
lowerneck -8.21948 -1.26243 -2.09217
upperneck 31.8315 -1.05724 -0.730137
head 11.7508 -0.762708 -0.0251556
rclavicle -1.93815e-014 6.36111e-015
rhumerus -45.1424 -18.8736 -63.7237
rradius 33.1172
rwrist -3.51477
rhand -11.5379 7.07996
rfingers 7.12502
rthumb 14.5022 -22.3932
lclavicle -1.93815e-014 6.36111e-015
lhumerus -46.7522 19.2508 66.0562
lradius 125.179
lwrist 7.39933
lhand -21.2775 58.2938
lfingers 7.12502
lthumb 5.10645 -271.788
rfemur -29.2544 1.18088 19.9022
rtibia 32.6317
rfoot 1.36456 -14.321
rtoes 25.71
lfemur 13.0141 -5.92578 -24.9319
ltibia 36.0923
lfoot 11.8069 -11.801
ltoes -11.4352
289
root 1.55464 17.6853 23.8489 -3.57771 13.729 2.89806
lowerback 18.0883 -0.612303 -4.71664
upperback 0.382717 -1.59245 1.9076
thorax -9.5738 -0.485892 5.19087
lowerneck -8.29229 -1.2085 -2.09966
upperneck 31.7736 -0.976505 -0.744584
head 11.7419 -0.730569 -0.0198988
rclavicle 1.67476e-014 9.54166e-015
rhumerus -44.8201 -18.6803 -64.006
rradius 33.5125
rwrist -3.58911
rhand -11.5144 6.63352
rfingers 7.12502
rthumb 14.5249 -22.838
lclavicle 1.67476e-014 9.54166e-015
lhumerus -47.9607 17.6967 67.9522
lradius 125.606
lwrist 0.0526737
lhand -23.6341 57.9469
lfingers 7.12502
lthumb 2.83069 -272.092
rfemur -29.0749 1.25579 20.9269
rtibia 33.7125
rfoot 0.822636 -13.6825
rtoes 26.8607
lfemur 11.5976 -5.63067 -24.0415
ltibia 38.6912
lfoot 14.8254 -12.8777
ltoes -11.6375
290
root 1.56695 17.6974 24.0846 -3.82081 13.0119 2.22749
lowerback 18.0114 -0.563557 -4.14869
upperback 0.539712 -1.38347 2.12
thorax -9.38945 -0.416421 5.038
lowerneck -8.68409 -1.12195 -1.58094
upperneck 31.5528 -0.8057 -1.24565
head 11.7261 -0.655276 -0.277989
rclavicle 7.00716e-015 3.97569e-015
rhumerus -44.0757 -18.0008 -64.8912
rradius 34.4041
rwrist -4.83761
rhand -12.1316 4.71082
rfingers 7.12502
rthumb 13.9302 -24.8026
lclavicle 7.00716e-015 3.97569e-015
lhumerus -49.0694 16.2365 70.0889
lradius 125.714
lwrist -6.88078
lhand -26.8199 59.0882
lfingers 7.12502
lthumb -0.246164 -270.932
rfemur -28.7153 1.50587 22.1062
rtibia 34.596
rfoot 0.0321498 -13.4744
rtoes 26.2816
lfemur 10.215 -5.28075 -23.0737
ltibia 41.1876
lfoot 17.3687 -14.3427
ltoes -10.847
291
root 1.58159 17.7149 24.3126 -3.94805 12.4909 1.86171
lowerback 17.953 -0.6126 -3.83154
upperback 0.52975 -1.37229 2.21282
thorax -9.37378 -0.42353 4.95313
lowerneck -8.67682 -1.02352 -1.66653
upperneck 31.4875 -0.696939 -1.09939
head 11.6994 -0.600541 -0.195101
rclavicle -3.51849e-014 1.74931e-014
rhumerus -43.6898 -18.021 -64.9798
rradius 34.5181
rwrist -4.55607
rhand -11.2873 6.09758
rfingers 7.12502
rthumb 14.7438 -23.3581
lclavicle -3.51849e-014 1.74931e-014
lhumerus -50.2288 15.2799 71.9708
lradius 125.227
lwrist -13.5189
lhand -30.0194 61.1987
lfingers 7.12502
lthumb -3.33618 -91.1524
rfemur -28.2014 1.44569 22.9254
rtibia 35.2091
rfoot -0.811256 -13.3357
rtoes 25.7469
lfemur 8.7073 -5.22461 -22.556
ltibia 43.6706
lfoot 19.6941 -15.2621
ltoes -8.82822
292
root 1.59097 17.7526 24.5443 -4.13536 12.0016 1.6723
lowerback 17.9893 -0.620582 -3.74707
upperback 0.663039 -1.35952 2.27449
thorax -9.24859 -0.426209 4.96651
lowerneck -9.00312 -0.974071 -1.54807
upperneck 31.4333 -0.64006 -1.13599
head 11.7436 -0.568622 -0.2245
rclavicle 3.40916e-014 -1.59028e-015
rhumerus -43.0052 -17.5395 -65.6932
rradius 35.3002
rwrist -5.29082
rhand -11.319 5.25668
rfingers 7.12502
rthumb 14.7132 -24.2012
lclavicle 3.40916e-014 -1.59028e-015
lhumerus -51.679 14.3063 73.8558
lradius 124.465
lwrist -19.5447
lhand -32.9215 63.1728
lfingers 7.12502
lthumb -6.13842 -93.0639
rfemur -27.464 1.20404 23.5739
rtibia 35.6443
rfoot -1.51202 -13.0073
rtoes 25.5128
lfemur 7.17315 -5.25484 -22.2728
ltibia 46.1249
lfoot 22.0372 -15.5313
ltoes -5.71866
293
root 1.6036 17.7737 24.7729 -4.30542 11.5188 1.3304
lowerback 18.0027 -0.634437 -3.44602
upperback 0.741647 -1.30858 2.35064
thorax -9.17968 -0.416727 4.86244
lowerneck -9.24201 -0.920975 -1.63682
upperneck 31.4006 -0.597525 -0.96325
head 11.7806 -0.541255 -0.140824
rclavicle -1.77415e-014 -2.38542e-014
rhumerus -42.5224 -17.4084 -66.1197
rradius 35.7677
rwrist -5.37943
rhand -11.1031 5.55969
rfingers 7.12502
rthumb 14.9212 -23.8829
lclavicle -1.77415e-014 -2.38542e-014
lhumerus -52.8252 13.6806 75.7305
lradius 123.035
lwrist -24.9649
lhand -34.9527 63.816
lfingers 7.12502
lthumb -8.09916 -93.6408
rfemur -26.7006 1.08035 24.3224
rtibia 35.9546
rfoot -2.29307 -12.6945
rtoes 25.8553
lfemur 5.6018 -5.35117 -21.8865
ltibia 48.6319
lfoot 23.4358 -15.4079
ltoes -5.20455
294
root 1.61674 17.7843 24.9966 -4.56197 10.9659 0.617737
lowerback 18.1386 -0.669498 -2.78493
upperback 0.747768 -1.20548 2.51636
thorax -9.26962 -0.389347 4.64342
lowerneck -9.24964 -0.88941 -1.37401
upperneck 31.2962 -0.57146 -1.10845
head 11.7379 -0.518016 -0.237395
rclavicle -3.50358e-014 -2.38542e-015
rhumerus -42.1573 -17.0891 -66.555
rradius 36.2419
rwrist -5.57623
rhand -10.7559 5.99251
rfingers 7.12502
rthumb 15.2556 -23.4249
lclavicle -3.50358e-014 -2.38542e-015
lhumerus -54.3888 12.7531 77.4221
lradius 121.348
lwrist -29.5362
lhand -36.5167 65.9763
lfingers 7.12502
lthumb -9.60834 -95.7372
rfemur -25.7997 1.3471 25.4179
rtibia 36.0827
rfoot -3.15078 -12.6869
rtoes 25.7203
lfemur 4.29045 -5.44308 -21.0906
ltibia 51.1257
lfoot 23.5837 -14.769
ltoes -6.30491
